<svg xmlns="http://www.w3.org/2000/svg" xmlns:xlink="http://www.w3.org/1999/xlink" viewBox="0,0,256,256" width="150px" height="150px"><g transform=""><g fill="#ff0000" fill-rule="nonzero" stroke="none" stroke-width="1" stroke-linecap="butt" stroke-linejoin="miter" stroke-miterlimit="10" stroke-dasharray="" stroke-dashoffset="0" font-family="none" font-weight="none" font-size="none" text-anchor="none" style="mix-blend-mode: normal"><g transform="scale(5.12,5.12)"><path d="M21.28125,0.59375c-0.10937,0.01563 -0.21484,0.04688 -0.3125,0.09375c-2.75,1.26563 -4.07031,3.33594 -4.625,5.125c-0.15234,0.49219 -0.16016,0.87891 -0.21875,1.3125c-0.10547,-0.16797 -0.21484,-0.27734 -0.3125,-0.46875c-0.55859,-1.09375 -0.94922,-2.5 -0.90625,-3.71875c0.02344,-0.41016 -0.20703,-0.79297 -0.57812,-0.96484c-0.37109,-0.17187 -0.8125,-0.09766 -1.10937,0.18359c-3.28516,3.01563 -3.51172,6.39844 -2.875,8.84375c0.27344,1.05469 0.66016,1.86719 1,2.5625c-0.14062,-0.07422 -0.26172,-0.08594 -0.40625,-0.1875c-0.80078,-0.57031 -1.58594,-1.53516 -1.84375,-3.125c-0.05469,-0.44531 -0.40234,-0.80078 -0.84766,-0.86328c-0.44141,-0.06641 -0.875,0.17188 -1.05859,0.58203c-2.19141,4.58984 -1.64844,7.56641 -0.53125,9.5625c0.55859,1 1.20703,1.76172 1.625,2.40625c0.41797,0.64453 0.59766,1.08203 0.53125,1.65625c0,0.03125 0,0.0625 0,0.09375c-0.09375,3.99609 -1.92969,6.23047 -3.75,7.59375c-1.82031,1.36328 -3.5625,1.75 -3.5625,1.75c-0.27734,0.05859 -0.51562,0.23047 -0.66016,0.47266c-0.14062,0.24609 -0.17578,0.53906 -0.08984,0.80859c0,0 0.43359,1.3125 1.5625,2.53125c0.9375,1.00781 2.46875,1.92188 4.5,2.03125c-0.46094,2.03906 -2.53125,3.125 -2.53125,3.125c-0.33594,0.16406 -0.55469,0.50391 -0.5625,0.88281c-0.00391,0.375 0.19922,0.72266 0.53125,0.89844c0,0 4.08594,1.96094 7.90625,0.21875c-0.02734,2.17969 -1,3.34375 -1,3.34375c-0.26172,0.30078 -0.32031,0.72266 -0.14844,1.08203c0.16797,0.35938 0.53125,0.58594 0.92969,0.57422c3.48828,-0.09375 5.76953,-1.98828 6.71875,-2.84375c0.01563,0.02734 0.01563,0.00391 0.03125,0.03125c0.24219,0.44531 0.48438,1.21094 0.21875,2.625c-0.05859,0.30859 0.02734,0.625 0.23828,0.85938c0.20703,0.23047 0.51172,0.35156 0.82422,0.32813c0.54688,-0.04687 1.03906,-0.23437 1.625,-0.5c0.58594,-0.26562 1.23047,-0.62109 1.875,-1.03125c0.90625,-0.57812 1.73047,-1.28906 2.4375,-2.0625c1.64063,1.6875 4.10938,2.33594 6.875,1.78125c0.40625,-0.08203 0.72266,-0.40625 0.79297,-0.8125c0.07031,-0.41016 -0.12109,-0.82031 -0.48047,-1.03125c0,0 -0.66406,-0.41016 -1.21875,-1.1875c-0.55469,-0.77734 -0.97656,-1.77344 -0.4375,-3.3125c0.33203,-0.90234 0.54688,-1.02734 0.46875,-1c0.08594,0.01563 0.27734,0.07031 0.53125,0.15625c0.50781,0.17188 1.30469,0.40625 2.28125,0.28125c0.93359,-0.11719 2.01953,-0.58203 3.25,-1.5c0.08203,0.14063 0.17578,0.36328 0.28125,0.75c0.26172,0.98047 0.34375,2.21875 0.34375,2.21875c0.01563,0.41016 0.27734,0.76953 0.66406,0.90625c0.38281,0.13672 0.81641,0.02734 1.08594,-0.28125c0,0 1.10547,-1.22266 2.25,-2.75c1.14453,-1.52734 2.375,-3.23828 2.59375,-4.90625c0.03516,-0.22656 -0.00781,-0.45703 -0.125,-0.65625c-0.91797,-1.49219 -2.42969,-2.16797 -3.9375,-2.4375c0.19922,-0.89453 0.28125,-2.28125 -0.4375,-3.71875c-1,2.39844 -2.78125,3.59375 -2.78125,3.59375c-0.60547,0.03125 -1.20703,0.05469 -1.75,0.09375c-0.01172,0 -0.01953,0 -0.03125,0c-1.19922,0.06641 -2.15625,0.01953 -2.8125,-0.15625c-0.66406,-0.17578 -1.00391,-0.42969 -1.25,-0.8125c-0.49219,-0.76172 -0.5625,-2.61328 0.3125,-5.875c0,-0.01172 0,-0.01953 0,-0.03125c0.27734,-1.1875 1.17188,-2.26953 2.125,-2.59375c0.95313,-0.32422 2.07422,-0.16406 3.40625,1.65625c1.08594,1.50781 2.73047,2.21875 4.25,2.5c0.19141,0.69922 0.38672,1.77734 0.4375,3.40625c1.14063,-0.69922 1.92969,-2.25 2.375,-3.34375c0.01953,-0.00391 0.04297,0.00391 0.0625,0c0.66406,-0.08984 1.13281,-0.13672 1.65625,-0.53125c0.1875,-0.14062 1.21094,-0.65625 1.78125,-1.96875c0.54688,-1.25 0.82422,-3.28125 0.71875,-6.78125c0.28125,-0.33594 0.63281,-0.76953 0.71875,-1.53125c0.05078,-0.46484 -0.08203,-0.99609 -0.40625,-1.40625c-0.31641,-0.39844 -0.75391,-0.71484 -1.3125,-1c-0.00781,-0.00391 -0.02344,-0.02734 -0.03125,-0.03125c-1.51172,-0.85547 -4.08984,-1.67578 -7.75,-2.28125c-0.37891,-0.78516 -0.78906,-1.56641 -1.25,-2.125c-0.57812,-0.69922 -1.02734,-1.13672 -1.53125,-1.4375c-0.57812,-0.36328 -1.00391,-0.375 -1.71875,-0.46875c-0.71484,-0.09375 -1.62891,-0.16016 -2.65625,-0.21875c-2.05469,-0.11328 -4.63672,-0.15625 -7.25,-0.15625c-0.73437,0 -2.13672,-0.375 -3,-1.1875c-0.86328,-0.8125 -1.41797,-1.97656 -0.65625,-4.3125c0.10938,-0.32422 0.04297,-0.68359 -0.17187,-0.94922c-0.21484,-0.26562 -0.55078,-0.40234 -0.89062,-0.36328zM20.0625,3.8125c0.02344,1.64844 0.63672,3 1.5625,3.875c1.36328,1.28516 3.10938,1.71875 4.375,1.71875c2.58594,0 5.16016,0.04688 7.15625,0.15625c0.99609,0.05469 1.83984,0.13672 2.46875,0.21875c0.47266,0.0625 0.87891,0.17969 0.96875,0.1875c-0.00391,0 0.52734,0.42578 1,1c0.47266,0.57422 0.98438,1.33203 1.28125,2.09375c0.12891,0.33203 0.42969,0.57031 0.78125,0.625c3.81641,0.58594 6.34375,1.49219 7.5625,2.1875c0.01172,0.01172 0.01953,0.01953 0.03125,0.03125c0.41797,0.21094 0.60547,0.37109 0.65625,0.4375c-0.01562,0.00781 -0.17969,0.32422 -0.5,0.75c-0.14844,0.1875 -0.22656,0.41797 -0.21875,0.65625c0.14844,3.67969 -0.17578,5.46875 -0.53125,6.28125c-0.35547,0.8125 -0.54297,0.69531 -1.15625,1.15625c0.125,-0.09375 -0.26172,0.12109 -0.75,0.1875c-0.48828,0.06641 -1.12109,0.07813 -1.78125,0c-1.32422,-0.15234 -2.69141,-0.66406 -3.46875,-1.75c-1.66797,-2.27734 -3.85156,-2.97656 -5.625,-2.375c-1.76172,0.59766 -3.00781,2.19922 -3.4375,4c-0.00391,0.00781 0.00391,0.02344 0,0.03125c-0.91406,3.41797 -1.14453,5.75781 -0.0625,7.4375c0.54297,0.84375 1.41016,1.39063 2.40625,1.65625c0.99609,0.26563 2.13672,0.29688 3.46875,0.21875c0.01172,0 0.01953,0 0.03125,0c1.41797,-0.10156 2.93359,-0.23828 4.21875,-0.0625c1.10547,0.15234 1.92578,0.55859 2.53125,1.28125c-0.22266,0.76172 -1.04297,2.27344 -2.03125,3.59375c-0.38281,0.51172 -0.42187,0.53516 -0.75,0.9375c-0.03125,-0.15234 -0.02344,-0.16016 -0.0625,-0.3125c-0.16797,-0.63672 -0.35156,-1.26953 -0.875,-1.8125c-0.26172,-0.26953 -0.67578,-0.53906 -1.15625,-0.5625c-0.46875,-0.01953 -0.90625,0.20703 -1.25,0.46875h-0.03125v-0.03125c-1.10156,0.84766 -1.85547,1.14844 -2.40625,1.21875c-0.55078,0.07031 -0.92187,-0.06641 -1.375,-0.21875c-0.22656,-0.07812 -0.46875,-0.15625 -0.78125,-0.21875c-0.3125,-0.0625 -0.75,-0.07422 -1.15625,0.09375c-0.80859,0.33984 -1.1875,1.07422 -1.59375,2.1875c-0.73828,2.09766 -0.16016,3.87891 0.625,5.03125c-1.47266,-0.14844 -2.71094,-0.64062 -3.4375,-1.8125c-0.1875,-0.30078 -0.51562,-0.48047 -0.86719,-0.47266c-0.35547,0.00781 -0.67578,0.19922 -0.85156,0.50391c-0.38672,0.66797 -1.48828,1.64844 -2.625,2.375c-0.51172,0.32813 -1.01953,0.60156 -1.46875,0.8125c-0.02734,-0.96875 -0.16406,-1.8125 -0.46875,-2.375c-0.46094,-0.85156 -1.15625,-1.28125 -1.15625,-1.28125c-0.39453,-0.23437 -0.89453,-0.16797 -1.21875,0.15625c0,0 -1.93359,1.73828 -4.375,2.5c0.38281,-1.07812 0.67578,-2.48437 0.375,-4.25c-0.05469,-0.35547 -0.29297,-0.65625 -0.62891,-0.78516c-0.33594,-0.12891 -0.71875,-0.07031 -0.99609,0.16016c-1.99219,1.60547 -4.0625,1.26172 -5.5625,0.8125c1.10938,-0.96094 2.23047,-2.39453 2.09375,-4.6875c-0.01562,-0.27734 -0.14453,-0.53516 -0.35937,-0.71484c-0.21094,-0.17578 -0.48828,-0.25781 -0.76562,-0.22266c-2.08203,0.26172 -3.27344,-0.52344 -4.09375,-1.40625c-0.42578,-0.46094 -0.41406,-0.58984 -0.59375,-0.9375c0.83203,-0.3125 1.92969,-0.8125 3.09375,-1.6875c2.16406,-1.62109 4.36328,-4.51953 4.5,-9.0625c0,-0.03516 0.03125,-0.05859 0.03125,-0.09375h-0.03125c0.09766,-1.13281 -0.33984,-2.09375 -0.84375,-2.875c-0.51953,-0.80469 -1.08984,-1.49219 -1.53125,-2.28125c-0.69531,-1.24219 -1.12109,-2.75781 -0.3125,-5.375c0.47656,0.76563 1.07422,1.375 1.6875,1.8125c0.59766,0.42578 1.19922,0.69531 1.78125,0.84375c0.58203,0.14844 1.13672,0.23047 1.71875,0c0.17969,-0.07812 0.33203,-0.21094 0.4375,-0.375c0.25391,-0.35547 0.21875,-0.69141 0.1875,-0.90625c-0.03125,-0.21484 -0.09375,-0.375 -0.15625,-0.53125c-0.125,-0.30859 -0.26172,-0.61328 -0.4375,-0.96875c-0.35547,-0.71094 -0.77344,-1.57422 -1.03125,-2.5625c-0.40234,-1.55078 -0.42969,-3.29687 0.90625,-5.21875c0.20313,0.82031 0.48828,1.61719 0.84375,2.3125c0.34766,0.67969 0.75,1.26953 1.1875,1.75c0.4375,0.48047 0.89844,0.87891 1.5625,1.03125c0.32422,0.07813 0.66406,-0.01172 0.91016,-0.23828c0.24219,-0.22656 0.35938,-0.55859 0.30859,-0.88672c-0.03906,-0.26562 -0.17187,-1.48047 0.25,-2.84375c0.27344,-0.87891 0.90625,-1.76562 1.8125,-2.59375zM32.3125,14.40625c0,0 0.38672,2.49219 2.6875,3.09375c0.5,-1.19922 1.6875,-2.69922 2.1875,-3c-1.80078,0.19922 -4.875,-0.09375 -4.875,-0.09375z"></path></g></g></g></svg>